<?xml version="1.0" encoding="utf-8"?>
<svg viewBox="77.0999526977539 262.1999816894531 608.7000122070312 147.69998168945312" width="608.7000122070312" height="147.69998168945312" xmlns="http://www.w3.org/2000/svg"><g transform="matrix(1, 0, 0, 1, 0, 0)">
		<g>
			<path class="st1" d="M359.3,397.8c0,0,19.7-70.1-30.2-74.2c-49.9-4.1-41.2,39.4-26.6,40.8c14.7,1.4,23.1-1.4,24.6,4.6&#10;&#9;&#9;&#9;&#9;c1.5,6-4.9,16.9,5.6,16.5c10.5-0.5,15.1-8.7,11-18.3c-4.1-9.6-19-7.3-16.6-16.9c2.4-9.6,26.7-8.5,29.9,10.4&#10;&#9;&#9;&#9;&#9;c3.2,18.9-9.2,43.2-36.2,40.9c-27-2.3-46.3-27-38.9-56.8c7.3-29.8,31.6-32.1,31.6-32.1s-16.9-5.5-33.2,6&#10;&#9;&#9;&#9;&#9;c-16.3,11.5-25.5,28.1-18.6,37.9c6.9,9.7,13.7,21.2-2.3,23c0,0-0.4,18.8-15.6,18.8c-15.1,0-11-19.2-11-19.2s-11,24.3-41.2,25.2&#10;&#9;&#9;&#9;&#9;c-30.2,0.9-35.7-11.5-61.8-11.5c-26.1,0-16.9,17-34.8,11.5c-17.9-5.5,16.5-33,46.7-23c0,0,0.5-19.7,14.7-19.7&#10;&#9;&#9;&#9;&#9;c14.2,0-2.7,23.4,16.5,29.3c19.2,6,57.3-6.9,58.2-27.5c0.9-20.6-14.2-10.5-7.8-25.2c6.4-14.7,19.7,1.4,29.8-6.4&#10;&#9;&#9;&#9;&#9;c10.1-7.8,23.9-31.4,72.8-27.5C371.1,308.1,380.8,361.7,359.3,397.8z" style="fill: rgb(204, 204, 204); opacity: 1;"/>
			<path class="st1" d="M403.6,397.8c0,0-19.7-70.1,30.2-74.2c49.9-4.1,41.2,39.4,26.6,40.8c-14.7,1.4-23.1-1.4-24.6,4.6&#10;&#9;&#9;&#9;&#9;c-1.5,6,4.9,16.9-5.6,16.5c-10.5-0.5-15.1-8.7-11-18.3c4.1-9.6,19-7.3,16.6-16.9c-2.4-9.6-26.7-8.5-29.9,10.4&#10;&#9;&#9;&#9;&#9;c-3.2,18.9,9.2,43.2,36.2,40.9c27-2.3,46.3-27,38.9-56.8c-7.3-29.8-31.6-32.1-31.6-32.1s16.9-5.5,33.2,6&#10;&#9;&#9;&#9;&#9;c16.3,11.5,25.5,28.1,18.6,37.9c-6.9,9.7-13.7,21.2,2.3,23c0,0,0.4,18.8,15.6,18.8c15.1,0,11-19.2,11-19.2s11,24.3,41.2,25.2&#10;&#9;&#9;&#9;&#9;c30.2,0.9,35.7-11.5,61.8-11.5c26.1,0,16.9,17,34.8,11.5c17.9-5.5-16.5-33-46.7-23c0,0-0.5-19.7-14.7-19.7&#10;&#9;&#9;&#9;&#9;c-14.2,0,2.7,23.4-16.5,29.3c-19.2,6-57.3-6.9-58.2-27.5c-0.9-20.6,14.2-10.5,7.8-25.2c-6.4-14.7-19.7,1.4-29.8-6.4&#10;&#9;&#9;&#9;&#9;c-10.1-7.8-23.9-31.4-72.8-27.5C391.8,308.1,382.1,361.7,403.6,397.8z" style="fill: rgb(204, 204, 204); opacity: 1;"/>
		</g>
		<path class="st1" d="M421.8,300.3c-2.1-7.3-8.7-5-23.4-14.7c-14.7-9.6-16.9-23.4-16.9-23.4l0,0v0c0,0-2.3,13.7-16.9,23.4&#10;&#9;&#9;&#9;c-14.7,9.6-21.2,7.3-23.4,14.7c-2.1,7.3,4.6,0.5,15.6,6c11,5.5,14.7,11.5,17.4,23.6c2.7,12.1,5,52.4,5,52.4l-12.4,15.1h14.7v-0.1&#10;&#9;&#9;&#9;l0,0.1h14.7l-12.4-15.1c0,0,2.3-40.3,5-52.4c2.7-12.1,6.4-18.1,17.4-23.6C417.2,300.7,423.9,307.6,421.8,300.3z" style="fill: rgb(204, 204, 204); opacity: 1;"/>
	</g></svg>