<?xml version="1.0" encoding="utf-8"?>
<svg viewBox="722.7000122070312 474.099853515625 507.30023193359375 69.10015869140625" width="507.30023193359375" height="69.10015869140625" xmlns="http://www.w3.org/2000/svg"><path class="st1" d="M1228.4,534.6h-133c2.2-1.8,3.4-4.4,3.1-6.8c-0.2-1.8-1.4-3.6-3.2-4.8c-1.9-1.3-4.1-1.6-6.1-1&#10;&#9;&#9;&#9;c-2.2,0.7-3.9,2.7-4,5c-0.2,2.1,0.9,3.9,2.8,4.8c0.8,0.3,1.6,0,2-0.7c0.3-0.8,0-1.6-0.7-2c-1-0.4-1.1-1.4-1-1.9&#10;&#9;&#9;&#9;c0.1-0.9,0.7-2,1.9-2.4c1.1-0.3,2.5-0.1,3.7,0.7c1,0.7,1.7,1.7,1.8,2.6c0.3,2.1-1.6,4.5-4.3,5.5c-2.5,1-5.8,1-9.3,0&#10;&#9;&#9;&#9;c-2.7-0.7-5.2-1.9-7.8-3.2l-1.3-0.6c-13.2-6.2-27.6-10.4-42.3-12.5c1-0.7,1.9-1.5,2.6-2.4c2.5-3.2,2.6-7.3,0.3-10.1&#10;&#9;&#9;&#9;c-1.3-1.5-3.4-2.6-5.6-2.7c-2.1-0.2-4,0.4-5.3,1.6c-1.5,1.3-2,3.5-1.3,5.6c0.8,2.1,2.7,3.5,4.8,3.6c0.8,0,1.5-0.6,1.6-1.4&#10;&#9;&#9;&#9;c0-0.8-0.6-1.5-1.4-1.6c-1.1,0-1.8-0.9-2.1-1.6c-0.3-0.7-0.3-1.7,0.5-2.3c0.7-0.6,1.8-1,3.1-0.9c1.4,0.1,2.8,0.7,3.5,1.6&#10;&#9;&#9;&#9;c1.6,2,0.9,4.7-0.4,6.3c-1.4,1.9-3.6,3-6.2,3.6c-3.8-0.4-7.5-0.6-11.3-0.7c-3.8-1.3-7.1-3.2-10.7-5.2c-2.1-1.2-4.2-2.4-6.4-3.5&#10;&#9;&#9;&#9;c-6.3-3.1-12.5-4.1-17.6-3c0.7-2.5,1.6-5,3-7.2c2.1-3.1,5.1-5.2,8.4-5.7c2.4-0.3,4.8,0.3,6.1,1.6c0.6,0.6,1,1.5,0.9,2.4&#10;&#9;&#9;&#9;c0,0.5-0.2,1.2-0.9,1.8c-0.7,0.5-1.8,0.7-2.9,0.5c-0.7-0.2-1.3-0.6-1.4-1c-0.3-0.8-1.2-1.2-1.9-0.8c-0.8,0.3-1.2,1.2-0.8,1.9&#10;&#9;&#9;&#9;c0.5,1.4,1.8,2.4,3.5,2.8c2,0.5,4.2,0.1,5.5-1.1c1.2-1,1.9-2.4,1.9-3.9c0.1-1.7-0.6-3.4-1.8-4.6c-2-2-5.3-2.9-8.7-2.4&#10;&#9;&#9;&#9;c-4.1,0.6-8,3.2-10.5,7c-0.2,0.3-0.4,0.7-0.6,1c-0.1-2.7-0.4-5.4-0.7-8c0-0.4,0.1-0.9,0.1-1.3c0.3-2.3,0.6-4.4,1.7-6.3&#10;&#9;&#9;&#9;c0.9-1.5,2.7-3.2,5.1-3.5c2-0.2,4.2,0.9,4.5,2.3c0.1,0.5-0.3,1.1-0.8,1.6c-0.6,0.4-1.5,0.8-2.3,0.4c-0.8-0.3-1.6,0-2,0.8&#10;&#9;&#9;&#9;c-0.3,0.8,0,1.6,0.8,2c1.7,0.7,3.7,0.4,5.3-0.8c1.5-1.1,2.2-2.8,2-4.4c-0.5-3.3-4.5-5.2-7.8-4.8c-3,0.4-5.7,2.2-7.3,5&#10;&#9;&#9;&#9;c-0.3,0.5-0.6,1.1-0.8,1.6c-0.2-0.5-0.5-1.1-0.8-1.6c-1.6-2.8-4.3-4.6-7.3-5c-3.2-0.4-7.3,1.5-7.8,4.8c-0.3,1.6,0.5,3.3,2,4.4&#10;&#9;&#9;&#9;c1.6,1.2,3.7,1.6,5.3,0.8c0.8-0.3,1.1-1.2,0.8-2s-1.2-1.1-2-0.8c-0.8,0.4-1.7,0-2.3-0.4c-0.6-0.5-0.9-1.1-0.8-1.6&#10;&#9;&#9;&#9;c0.2-1.4,2.5-2.6,4.5-2.3c2.4,0.3,4.2,2,5.1,3.5c1.1,1.9,1.4,4.1,1.7,6.3c0.1,0.4,0.1,0.9,0.1,1.3c-0.3,2.7-0.5,5.3-0.7,8&#10;&#9;&#9;&#9;c-0.2-0.3-0.4-0.7-0.6-1c-2.5-3.9-6.3-6.4-10.5-7c-3.4-0.5-6.7,0.4-8.7,2.4c-1.2,1.2-1.9,2.9-1.8,4.6c0.1,1.6,0.8,3,1.9,3.9&#10;&#9;&#9;&#9;c1.4,1.2,3.6,1.6,5.5,1.1c1.7-0.4,2.9-1.5,3.5-2.8c0.3-0.8-0.1-1.6-0.8-1.9c-0.8-0.3-1.6,0.1-1.9,0.8c-0.2,0.4-0.7,0.8-1.4,1&#10;&#9;&#9;&#9;c-1,0.3-2.2,0.1-2.9-0.5c-0.7-0.6-0.8-1.3-0.9-1.8c0-0.9,0.3-1.7,0.9-2.4c1.3-1.3,3.7-1.9,6.1-1.6c3.3,0.5,6.3,2.5,8.4,5.7&#10;&#9;&#9;&#9;c1.4,2.2,2.3,4.7,3,7.2c-5.1-1.1-11.3-0.1-17.6,3c-2.2,1.1-4.3,2.3-6.4,3.5c-3.5,2-6.8,3.9-10.5,5.2c0,0,0,0,0,0&#10;&#9;&#9;&#9;c-4.2,0-8.4,0.2-12.6,0.5c-2-0.6-3.8-1.7-5-3.3c-1.3-1.7-2-4.4-0.4-6.3c0.7-0.9,2.1-1.5,3.5-1.6c1.3-0.1,2.4,0.2,3.1,0.9&#10;&#9;&#9;&#9;c0.7,0.6,0.7,1.6,0.5,2.3c-0.3,0.8-1,1.6-2.1,1.6c-0.8,0-1.5,0.7-1.4,1.6s0.7,1.5,1.6,1.4c2.2-0.1,4.1-1.5,4.8-3.6&#10;&#9;&#9;&#9;c0.7-2,0.2-4.2-1.3-5.6c-1.3-1.2-3.2-1.8-5.3-1.6c-2.3,0.2-4.4,1.2-5.6,2.7c-2.3,2.8-2.2,6.9,0.3,10.1c0.6,0.8,1.3,1.4,2,2&#10;&#9;&#9;&#9;c-16,1.9-31.7,6.3-46,12.9l-1.3,0.6c-2.6,1.2-5.1,2.4-7.8,3.2c-3.4,0.9-6.7,0.9-9.3,0c-2.7-1-4.6-3.4-4.3-5.5&#10;&#9;&#9;&#9;c0.1-1,0.8-1.9,1.8-2.6c1.1-0.8,2.5-1,3.7-0.7c1.2,0.4,1.8,1.5,1.9,2.4c0,0.5,0,1.4-1,1.9c-0.8,0.3-1.1,1.2-0.7,2&#10;&#9;&#9;&#9;c0.3,0.8,1.2,1.1,2,0.7c1.9-0.9,2.9-2.7,2.8-4.8c-0.2-2.4-1.8-4.4-4-5c-2-0.6-4.3-0.2-6.2,1c-1.8,1.2-2.9,2.9-3.2,4.8&#10;&#9;&#9;&#9;c-0.3,2.5,0.9,5,3.1,6.8H724.2c-0.8,0-1.5,0.7-1.5,1.5s0.7,1.5,1.5,1.5h246.6l6.4,5.5l6.4-5.5h244.9c0.8,0,1.5-0.7,1.5-1.5&#10;&#9;&#9;&#9;S1229.2,534.6,1228.4,534.6z M951.5,513.3c2-1.2,4.1-2.4,6.2-3.4c3-1.5,10.4-4.5,16.8-2.5c0.1,0.1,0.3,0.3,0.5,0.3&#10;&#9;&#9;&#9;c0.4,0.3,0.9,0.5,1.4,0.3c0.5,0.1,1,0,1.4-0.3c0.2-0.1,0.3-0.2,0.5-0.3c6.4-2,13.7,1,16.8,2.5c2.1,1,4.2,2.2,6.2,3.4&#10;&#9;&#9;&#9;c1.9,1.1,3.8,2.2,5.8,3.2c-6.3-0.4-12.7,0.6-18.4,2.8c1.5-2.8,1.8-6.2-0.6-8.8c-2.2-2.4-6.4-3.2-9.5-1.8c-0.8,0.4-1.5,0.9-2.1,1.5&#10;&#9;&#9;&#9;c-0.6-0.6-1.3-1.1-2.1-1.5c-3.1-1.4-7.3-0.6-9.5,1.8c-2.3,2.6-2.1,6.1-0.6,8.8c-5.8-2.2-12.2-3.2-18.4-2.8&#10;&#9;&#9;&#9;C947.7,515.5,949.6,514.4,951.5,513.3z M914.6,534.6h-42.1c1-0.4,2-0.9,3-1.4l1.3-0.6c15.4-7.2,32.4-11.7,49.8-13.2&#10;&#9;&#9;&#9;c1.5,0.4,3,0.6,4.6,0.7c-6.9,3.1-12.8,8-16.4,14C914.7,534.3,914.6,534.5,914.6,534.6z M966.5,534l0.7,0.6H918&#10;&#9;&#9;&#9;c5.2-7.7,14.5-13.3,24.7-14.8c10.7-1.5,22.3,1.5,30.1,8c0.2,0.1,0.3,0.2,0.5,0.3L966.5,534z M976.6,524.3c-0.1,0-0.2,0.1-0.3,0.2&#10;&#9;&#9;&#9;c-0.1-0.1-0.2-0.1-0.3-0.2c-2.9-1.3-6.2-2.7-8.3-5c-1.6-1.8-2.5-4.8-0.8-6.7c1.3-1.5,4.1-1.9,6-1.1c0.7,0.3,1.3,0.8,1.7,1.4&#10;&#9;&#9;&#9;c-0.5,1.3-0.5,2.8,0,4.1c0.3,0.7,1,1.1,1.7,1c0.7,0.1,1.4-0.3,1.7-1c0.5-1.3,0.5-2.8,0-4.1c0.4-0.6,1-1.1,1.7-1.4&#10;&#9;&#9;&#9;c1.9-0.9,4.7-0.4,6,1.1c1.7,1.9,0.9,4.9-0.8,6.7C982.8,521.5,979.5,523,976.6,524.3z M986.9,534.6l0.7-0.6l-7.5-6.5&#10;&#9;&#9;&#9;c7.8-6.2,19.1-9.2,29.7-7.7c10.2,1.5,19.5,7.1,24.7,14.8H986.9z M1037.9,534.6c0-0.2-0.1-0.3-0.2-0.5c-3.6-6-9.5-10.9-16.4-14&#10;&#9;&#9;&#9;c1.1,0,2.2-0.2,3.3-0.4c16.3,1.7,32.3,6.1,46.8,12.9l1.3,0.6c1,0.5,2,0.9,3,1.4H1037.9z" style="fill: rgb(204, 204, 204); opacity: 1;" transform="matrix(1, 0, 0, 1, 0, 0)"/></svg>