<?xml version="1.0" encoding="utf-8"?>
<svg viewBox="414.2861328125 395.9681701660156 151.8138427734375 27.163177490234375" width="151.8138427734375" height="27.163177490234375" xmlns="http://www.w3.org/2000/svg"><path class="st3" d="M416.8,400.6c0.4,0.7,0.7,1.3,0.7,1.7l-0.7,8.3h-0.3c-0.2,0-0.5-2.6-0.8-8v-0.5&#10;&#9;&#9;C415.7,401.1,416.1,400.6,416.8,400.6L416.8,400.6z M413.5,403c1.5,0.8,2.2,2,2.2,3.7h-0.1c-0.6-1-1.2-1.6-1.8-1.6h-0.4&#10;&#9;&#9;c-0.5,0-1,0.3-1.4,0.9h-0.1v-0.5C411.8,404.1,412.4,403.3,413.5,403L413.5,403z M419.8,403c0.7,0,1.2,0.9,1.4,2.6v0.4h-0.1&#10;&#9;&#9;l-0.9-0.9h-0.9c-0.6,0-1.2,0.5-1.8,1.6h-0.1C417.8,404.2,418.6,403,419.8,403L419.8,403z M409.7,405.9h0.9v0.2&#10;&#9;&#9;c-0.4,1-0.6,1.7-0.6,2.1v0.7h0.1c0.5-0.4,0.9-0.5,1.3-0.5h0.1l0.9,0.3v0.2l-0.8,1.6v1.2c0,0.6,0.3,1.2,0.9,1.8h0.8&#10;&#9;&#9;c1.2-0.4,1.8-1.3,1.8-2.8v-0.2l-0.3-0.4c-0.4,0-0.7,0.5-0.7,1.6v0.5c-0.5,0-1.1-0.6-1.7-1.7v-0.2c0.4-0.8,0.9-1.2,1.6-1.2&#10;&#9;&#9;c0.8,0,1.3,0.9,1.6,2.6v0.5c0,1.2-0.6,1.9-2,2.1h-0.3c-0.3,0-1.5-0.6-3.6-1.9l-2.1-0.7l-1.3,1.1V412c0-1.6,0.6-2.4,1.8-2.4l0.9,0.3&#10;&#9;&#9;c-0.4-0.8-0.6-1.5-0.6-1.9v-0.5C408.7,406.5,409.1,405.9,409.7,405.9L409.7,405.9z M422.3,405.9h0.9c0.9,0.3,1.3,0.8,1.3,1.7&#10;&#9;&#9;c-0.1,0.7-0.4,1.4-0.8,2.3h0.1l1-0.3c0.9,0,1.5,0.8,1.6,2.4v0.7l-1.3-1.1c-0.7,0-2.6,0.9-5.5,2.6h-0.4c-1,0-1.7-0.5-2.1-1.6v-1.2&#10;&#9;&#9;c0.3-1.6,0.8-2.4,1.6-2.4c0.6,0,1.2,0.4,1.6,1.2v0.2c-0.5,1.1-1.1,1.7-1.7,1.7v-0.9c0-0.6-0.2-1.1-0.7-1.2l-0.3,0.9&#10;&#9;&#9;c0,1.1,0.6,2,1.8,2.4h0.8c0.7-0.7,1-1.4,1-2.1c-0.1-0.8-0.4-1.6-0.9-2.4v-0.2l0.9-0.3h0.3l1.3,0.5v-0.7c0-0.5-0.2-1.2-0.7-2.1&#10;&#9;&#9;V405.9L422.3,405.9z M413.6,406.3h0.3c1,0,1.7,1.1,2,3.3h-0.1c-0.8-1-1.6-1.5-2.3-1.6l-0.9,0.5l-0.1-0.2v-0.2&#10;&#9;&#9;C412.5,406.9,412.9,406.3,413.6,406.3L413.6,406.3z M419.1,406.3h0.3c0.7,0,1.2,0.7,1.3,2.1l-0.1,0.2h-0.1c0-0.3-0.3-0.4-0.9-0.5&#10;&#9;&#9;c-0.8,0.2-1.5,0.7-2.2,1.6h-0.1C417.4,407.4,418.1,406.3,419.1,406.3L419.1,406.3z M406.1,407.7h0.8c1,0.4,1.6,0.8,1.6,1.4h-0.3&#10;&#9;&#9;l-0.4-0.4c-0.8,0-1.4,0.3-1.8,0.9l-1.4-0.5v-0.4C404.8,408,405.4,407.7,406.1,407.7L406.1,407.7z M426.1,407.7h1.3&#10;&#9;&#9;c0.5,0.3,0.9,0.7,1.2,1.2c-0.2,0.3-0.8,0.5-1.7,0.7c-0.1-0.6-0.7-0.9-1.7-0.9l-0.4,0.4h-0.3C424.6,408.5,425.1,408.1,426.1,407.7&#10;&#9;&#9;L426.1,407.7z M371.3,410.8h35v0.5l-0.3,0.3h-35v-0.5L371.3,410.8L371.3,410.8z M426.8,410.8h35l0.3,0.4v0.2l-0.3,0.3H427l-0.3-0.3&#10;&#9;&#9;V410.8L426.8,410.8z M416.5,412.5h0.1c0.6,1,0.9,1.9,0.9,3c-0.1,0.9-0.4,1.4-1,1.4h-0.3l-0.6-0.9v-0.7&#10;&#9;&#9;C415.9,413.4,416.2,412.5,416.5,412.5L416.5,412.5z" style="fill: rgb(204, 204, 204); opacity: 1;" transform="matrix(1.6664530038833618, 0, 0, 1.6664530038833618, -203.96791076660156, -271.6129150390625)"/></svg>