<?xml version="1.0" encoding="utf-8"?>
<svg viewBox="331.5 197.60000610351562 140.29998779296875 90.10000610351562" width="140.29998779296875" height="90.10000610351562" xmlns="http://www.w3.org/2000/svg"><g transform="matrix(1, 0, 0, 1, 0, 0)">
		<path class="st2" d="M375.4,283.1c-1.4-1.6-2.8,1.2-4.2,0.9c-2.2-0.5-4.1-2.2-3.5-4.4c0.5-1.9,3.9-4.1,2-8.3&#10;&#9;&#9;&#9;c3.2,4.5,9.2,6.5,13,4.3c5.1-3.1,1.9-8.6-2.9-6.2c-3,1.5-8.8-0.5-9.4-4.8c-0.4-3.6,0.6-7.8,5.4-10.9c7.6-4.9,18.7,0.9,23.4,9.7&#10;&#9;&#9;&#9;c0.5,1,0.8,2.1,1.3,3c0.8,1.4,2,0.1,1.4-1.6c-0.5-1.6-1.9-4.2-3.3-6.5c-7.3-12.7-25.8-16-36.3-8.2c-2.7,2-9.5,7.6-6.8,11.2&#10;&#9;&#9;&#9;c5.7-11.1,19.3-15.8,28.1-11.3c-5.8,0.1-11.6,0.8-16.7,5.5c-4,3.7-6.5,9.2-7,14.5c-0.8,7.4,2.2,14.4,9.9,16&#10;&#9;&#9;&#9;C371.6,286.3,376.4,284.2,375.4,283.1z" style="fill: rgb(204, 204, 204); opacity: 1;"/>
		<path class="st2" d="M426.8,284.4c1.4-1.6,2.8,1.2,4.2,0.9c2.2-0.5,4.1-2.2,3.5-4.4c-0.5-1.9-3.9-4.1-2-8.3&#10;&#9;&#9;&#9;c-3.2,4.5-9.2,6.5-13,4.3c-5.1-3.1-1.9-8.6,2.9-6.2c3,1.5,8.8-0.5,9.4-4.7c0.4-3.6-0.6-7.8-5.4-10.9c-7.6-4.9-18.7,0.9-23.4,9.7&#10;&#9;&#9;&#9;c-0.5,1-0.8,2.1-1.3,3c-0.8,1.4-2,0.1-1.4-1.6c0.5-1.6,1.9-4.2,3.3-6.5c7.3-12.7,25.8-16,36.3-8.2c2.7,2,9.5,7.6,6.8,11.2&#10;&#9;&#9;&#9;c-5.7-11.1-19.3-15.8-28.1-11.3c5.8,0.1,11.6,0.8,16.7,5.5c4,3.7,6.5,9.2,7,14.5c0.8,7.4-2.2,14.4-9.9,16&#10;&#9;&#9;&#9;C430.6,287.7,425.8,285.6,426.8,284.4z" style="fill: rgb(204, 204, 204); opacity: 1;"/>
		<path class="st2" d="M393.6,236.6c6.6,8,8.2,20.9,8.2,20.9c0.1-5.9,8.8-22.7,8.8-22.7c-3.1-4.7-8.6-8.2-8.6-8.2&#10;&#9;&#9;&#9;C397.8,228,393.6,236.6,393.6,236.6z" style="fill: rgb(204, 204, 204); opacity: 1;"/>
		<path class="st2" d="M419.2,224.2c0,0,0.2-4.9,2.5-8.8c0,0-9.3,3.3-10,15.4C411.7,230.8,413.9,226,419.2,224.2z" style="fill: rgb(204, 204, 204); opacity: 1;"/>
		<path class="st2" d="M412.7,215.8c0,0-1.4-5.4,1.1-10.9c0,0-10.5,7.4-6.5,21.9C407.4,226.8,406.9,221.6,412.7,215.8z" style="fill: rgb(204, 204, 204); opacity: 1;"/>
		<path class="st2" d="M384.9,224c5.2,1.8,7.5,6.7,7.5,6.7c-0.7-12.1-9.9-15.5-9.9-15.5C384.7,219.1,384.9,224,384.9,224z" style="fill: rgb(204, 204, 204); opacity: 1;"/>
		<path class="st2" d="M391.1,216c6.6,5.1,6.7,10.2,6.7,10.2c2.1-15-9.3-20.9-9.3-20.9C391.7,210.4,391.1,216,391.1,216z" style="fill: rgb(204, 204, 204); opacity: 1;"/>
		<path class="st2" d="M402.7,223.6c0,0-0.2-7.4,2.7-17l-5-9l-3.4,9.7C401.5,215.3,402.7,223.6,402.7,223.6z" style="fill: rgb(204, 204, 204); opacity: 1;"/>
		<g>
			<path class="st2" d="M401.6,270.4c0.3-1.1,0.8-2.1,1.4-3.1c0.2-0.7,0.4-1.3,0.7-1.9c-0.2-1-0.4-2-0.6-3c-0.1,0.7-0.2,1-0.2,1&#10;&#9;&#9;&#9;&#9;s-8.3-23.7-27.5-32.4c-19.2-8.7-34.7,3.4-39.3,13.6C331.5,254.8,336,269,350,274c0,0-18.3-12.8-10.8-29.4&#10;&#9;&#9;&#9;&#9;c7.5-16.6,30.4-9,31.1-0.5c0,0,5.1-7.2,14.1-3.1c7.3,3.3,11.6,14.7,16.2,27c0.3,0.6,0.5,1.2,0.7,1.8&#10;&#9;&#9;&#9;&#9;C401.4,270,401.5,270.2,401.6,270.4z" style="fill: rgb(204, 204, 204); opacity: 1;"/>
			<path class="st2" d="M467.2,244.6c-4.6-10.2-20-22.2-39.3-13.6c-19.2,8.7-27.5,32.4-27.5,32.4s0-0.4-0.2-1&#10;&#9;&#9;&#9;&#9;c-0.2,1.1-0.4,2.1-0.6,3.1c0.4,0.7,0.6,1.4,0.9,2.1c0.5,0.9,0.8,1.9,1,2.9c0.3-1.1,0.8-2.1,1.3-3.1c0.1-0.2,0.1-0.4,0.2-0.5&#10;&#9;&#9;&#9;&#9;c0.1-0.3,0.2-0.6,0.3-0.9c4.3-11.5,8.6-21.9,15.5-25c9-4.1,14.1,3.1,14.1,3.1c0.7-8.5,23.6-16.1,31.1,0.5&#10;&#9;&#9;&#9;&#9;c7.5,16.6-10.8,29.4-10.8,29.4C467.4,269,471.8,254.8,467.2,244.6z" style="fill: rgb(204, 204, 204); opacity: 1;"/>
		</g>
	</g></svg>