<?xml version="1.0" encoding="iso-8859-1"?>
<!-- Uploaded to: SVG Repo, www.svgrepo.com, Generator: SVG Repo Mixer Tools -->
<!DOCTYPE svg PUBLIC "-//W3C//DTD SVG 1.1//EN" "http://www.w3.org/Graphics/SVG/1.1/DTD/svg11.dtd">
<svg fill="currentColor" xmlns="http://www.w3.org/2000/svg"
	 viewBox="0 0 218.24 218.24" preserveAspectRatio="none">
<g>
	<g>
		<path d="M216.439,78.565c-2.027-4.546-7.331-7.122-5.931-22.098c0,0-8.811,3.766-12.087,13.898
			c-7.319-16.636-24.034-9.28-24.034-9.28c7.801,4.951,4.865,11.387,9.864,18.755c-10.424-0.39-16.921,6.336-16.921,6.336
			c14.492,4.059,15.016,9.935,18.553,13.463c8.684,8.717,15.15,4.095,20.082,0.475c2.826,6.61,3.252,13.734,0.914,19.909
			c-2.283,6.004-6.96,10.631-13.159,13.03c-9.225,3.544-17.208,2.046-24.837-1.497c-0.391-0.184-0.816-0.385-1.23-0.566
			c-0.566-0.274-1.114-0.604-1.668-0.896c-8.799-6.734-11.49-14.925-7.685-23.255c0.17,0.055,0.316,0.158,0.48,0.189
			c0.518,0.091,1.041,0.134,1.553,0.134c4.385,0,8.136-3.16,8.891-7.475c0.889-4.893-2.424-9.594-7.35-10.485
			c-4.987-0.874-9.609,2.5-10.443,7.331c-0.433,2.363,0.085,4.759,1.455,6.734c0.293,0.411,0.719,0.667,1.072,1.029
			c-2.947,6.116-3.094,12.255-0.658,17.954c-2.703-1.79-5.352-3.562-8.037-5.151c-4.841-2.874-9.463-5.59-13.95-7.502
			c1.619-0.256,3.239-0.608,4.822-1.169c11.691-4.095,17.859-16.958,13.78-28.662c-3.374-9.614-13.927-14.696-23.56-11.329
			c-7.94,2.792-12.145,11.548-9.361,19.492c1.126,3.206,3.431,5.778,6.476,7.246c3.068,1.482,6.552,1.689,9.736,0.554
			c5.56-1.945,8.482-8.044,6.552-13.612c-1.644-4.701-6.844-7.17-11.545-5.562c-4.031,1.428-6.132,5.849-4.726,9.864
			c0.451,1.291,1.876,1.97,3.179,1.522c1.304-0.457,1.979-1.891,1.522-3.193c-0.499-1.422,0.268-2.987,1.687-3.499
			c2.089-0.728,4.439,0.387,5.158,2.488c1.047,2.978-0.524,6.217-3.478,7.252c-1.954,0.676-4.073,0.569-5.937-0.335
			c-1.857-0.898-3.252-2.457-3.934-4.402c-1.888-5.35,0.943-11.256,6.309-13.131c7.051-2.469,14.735,1.251,17.195,8.272
			c3.203,9.112-1.62,19.108-10.717,22.299c-7.715,2.716-15.923,0.928-21.802-3.94c1.946-2.42,3.504-5.182,4.545-8.193
			c0.262-0.768,0.14-1.623-0.322-2.271c-0.47-0.654-1.222-1.047-2.034-1.047h-3.23V75.286c0.058-0.07,0.131-0.101,0.183-0.164
			l2.171-3.203c0.509-0.761,0.572-1.748,0.131-2.563c-0.444-0.816-1.278-1.328-2.207-1.328h-5.587c-0.919,0-1.772,0.511-2.207,1.328
			c-0.427,0.816-0.381,1.802,0.137,2.563l2.162,3.19c0.07,0.089,0.137,0.125,0.207,0.189v12.943h-3.224
			c-0.81,0-1.565,0.386-2.034,1.047c-0.466,0.655-0.584,1.51-0.317,2.271c1.072,3.054,2.643,5.824,4.57,8.199
			c-1.41,1.172-2.963,2.17-4.64,2.986c-5.404,2.612-11.527,2.944-17.184,0.947c-4.409-1.547-7.95-4.713-9.996-8.93
			c-2.019-4.214-2.286-8.967-0.749-13.381c2.469-7.015,10.166-10.741,17.224-8.278c5.349,1.888,8.181,7.772,6.311,13.131
			c-1.422,4.028-5.812,6.153-9.864,4.737c-2.962-1.035-4.521-4.29-3.504-7.246c0.74-2.113,3.09-3.233,5.161-2.5
			c1.428,0.511,2.201,2.083,1.69,3.504c-0.454,1.303,0.219,2.731,1.522,3.194c1.291,0.454,2.731-0.225,3.182-1.522
			c1.428-4.016-0.694-8.437-4.752-9.871c-4.689-1.62-9.865,0.874-11.53,5.575c-1.934,5.569,1.011,11.661,6.561,13.6
			c6.622,2.326,13.898-1.172,16.23-7.794c2.78-7.943-1.41-16.699-9.359-19.498c-9.648-3.367-20.192,1.726-23.571,11.335
			c-1.964,5.669-1.638,11.77,0.956,17.184c2.612,5.414,7.158,9.487,12.842,11.472c1.559,0.548,3.163,0.932,4.758,1.193
			c-4.491,1.905-9.061,4.615-13.898,7.478c-2.676,1.57-5.325,3.349-8.02,5.139c2.439-5.699,2.271-11.824-0.654-17.957
			c0.344-0.353,0.767-0.603,1.047-1.007c1.391-1.977,1.915-4.372,1.479-6.723c-0.85-4.838-5.349-8.242-10.458-7.359
			c-2.387,0.426-4.463,1.742-5.849,3.717c-1.397,1.97-1.927,4.384-1.483,6.765c0.755,4.32,4.5,7.468,8.884,7.468
			c0.511,0,1.035-0.042,1.559-0.128c0.177-0.036,0.313-0.146,0.481-0.188c3.784,8.323,1.108,16.495-7.682,23.242
			c-0.548,0.292-1.099,0.621-1.647,0.896c-0.447,0.201-0.904,0.396-1.333,0.603c-7.633,3.532-15.583,5.018-24.768,1.474
			c-6.211-2.411-10.899-7.033-13.174-13.043c-2.362-6.175-1.927-13.311,0.911-19.899c4.898,3.623,11.377,8.245,20.082-0.478
			c3.504-3.523,4.028-9.399,18.526-13.457c0,0-6.497-6.729-16.91-6.335c5-7.368,2.052-13.805,9.871-18.755
			c0,0-16.748-7.359-24.055,9.277C16.53,60.194,7.728,56.428,7.728,56.428c1.395,14.979-3.912,17.546-5.925,22.098
			c-4.914,10.934,1.233,15.396,6.318,18.664c-3.724,8.025-4.296,16.879-1.385,24.551c2.779,7.35,8.479,13.007,16.029,15.924
			c4.284,1.644,8.346,2.344,12.228,2.344c4.277,0,8.305-0.889,12.178-2.253c0.399,0.019,0.816-0.03,1.19-0.207
			c5.468-2.697,10.196-4.726,14.41-4.811c-1.495,1.437-2.53,3.459-2.935,6.004c-1.242,7.929,4.993,11.167,12.65,14.315
			c2.886,1.188,5.587,2.99,9.423,7.812c0.472,0.609,1.197,0.943,1.952,0.943c0.131,0,0.286-0.012,0.423-0.042
			c0.91-0.152,1.647-0.792,1.939-1.669c0.25-0.73,5.955-18.108,0.131-27.924c-2.046-3.447-5.188-5.59-9.365-6.333
			c-0.143-0.03-0.767-0.085-0.91-0.085c-1.599,0-4.028,0.657-5.706,2.508c-0.256,0.28-0.375,0.627-0.569,0.926
			c-1.458-0.657-2.947-1.09-4.433-1.291c0.606-0.383,1.19-0.791,1.791-1.169c2.813-1.876,5.586-3.727,8.381-5.37
			c6.266-3.709,11.347-6.559,15.954-8.142c-0.633,0.42-1.227,0.889-1.75,1.455c-1.69,1.863-2.558,4.263-2.451,6.759
			c0.125,2.972,1.403,5.712,3.58,7.715c2.07,1.906,4.719,2.93,7.499,2.93c0.158,0,0.344,0,0.511-0.024
			c0.588-0.024,1.148-0.128,1.696-0.231c-0.316,0.755-0.28,1.632,0.189,2.326l4.844,7.179c0.843,1.224,2.094,1.931,3.461,1.931
			c1.352,0,2.612-0.694,3.458-1.943l4.859-7.154c0.46-0.706,0.512-1.602,0.167-2.375c0.573,0.109,1.124,0.244,1.69,0.269
			c3.081,0.146,5.827-0.896,8.007-2.898c2.204-1.997,3.477-4.75,3.611-7.722c0.109-2.502-0.768-4.907-2.473-6.759
			c-0.536-0.597-1.15-1.071-1.784-1.485c4.598,1.583,9.706,4.445,15.984,8.172c2.789,1.656,5.584,3.507,8.396,5.376
			c0.597,0.384,1.188,0.786,1.778,1.176c-1.474,0.194-2.966,0.633-4.421,1.284c-0.183-0.311-0.311-0.645-0.566-0.932
			c-1.681-1.851-4.122-2.502-5.711-2.502c-0.141,0-0.786,0.055-0.92,0.091c-4.165,0.737-7.319,2.874-9.353,6.321
			c-5.828,9.815-0.128,27.193,0.128,27.924c0.286,0.877,1.022,1.504,1.936,1.669c0.141,0.03,0.299,0.042,0.427,0.042
			c0.755,0,1.461-0.347,1.948-0.938c3.83-4.828,6.552-6.619,9.426-7.812c7.66-3.154,13.896-6.405,12.653-14.309
			c-0.39-2.558-1.431-4.58-2.953-6.029c4.232,0.098,8.957,2.132,14.413,4.823c0.384,0.183,0.804,0.226,1.193,0.207
			c3.873,1.376,7.929,2.253,12.19,2.253c3.892,0,7.946-0.7,12.228-2.344c7.538-2.917,13.231-8.568,16.026-15.912
			c2.929-7.672,2.351-16.531-1.37-24.563C215.203,93.946,221.354,89.501,216.439,78.565z M61.3,100.432
			c-0.636,0.904-1.565,1.488-2.631,1.689c-2.259,0.362-4.29-1.124-4.676-3.297c-0.189-1.075,0.049-2.146,0.654-3.011
			c0.625-0.892,1.559-1.479,2.643-1.681c0.231-0.042,0.462-0.061,0.679-0.061c1.946,0,3.642,1.434,3.985,3.367
			C62.156,98.479,61.924,99.545,61.3,100.432z M69.143,135.338c0.807,0,1.379,0.14,1.428,0.152c2.07,1.717,4.028,4.335,5.895,8.122
			c0.429,0.877,1.315,1.383,2.226,1.383c0.38,0,0.755-0.092,1.108-0.263c1.236-0.621,1.735-2.112,1.136-3.342
			c-2.155-4.318-4.527-7.35-7.002-9.481c0.07-0.098,0.119-0.194,0.161-0.268c0.533-0.585,1.51-0.865,2.046-0.865
			c2.712,0.481,4.658,1.778,5.949,3.958c2.962,4.981,1.927,13.652,0.612,19.461c-2.646-2.716-5.218-4.469-8.293-5.736
			c-8.924-3.671-10.145-5.638-9.621-8.95C65.228,136.629,66.576,135.338,69.143,135.338z M106.631,118.16
			c0,0.03-0.012,0.049-0.012,0.079c-0.024,0.433-0.024,0.883,0,1.297c-0.137,1.82-0.892,3.52-2.146,4.89
			c-1.495,1.645-3.541,2.6-5.779,2.697c-1.641,0.049-3.212-0.487-4.415-1.602c-1.203-1.107-1.915-2.618-1.97-4.269
			c-0.064-1.175,0.353-2.296,1.148-3.166c0.81-0.883,1.9-1.395,3.066-1.431c1.391-0.062,2.457-1.225,2.39-2.601
			c-0.04-0.913-0.6-1.681-1.343-2.076c3.069-0.183,6.019,0.408,9.061,2.101V118.16z M106.631,108.661
			c-1.315-0.548-2.637-0.95-3.939-1.218c0.155-0.08,0.322-0.104,0.472-0.165c1.218-0.591,2.362-1.272,3.468-2.009V108.661z
			 M111.618,105.232c1.242,0.841,2.557,1.577,3.924,2.211c-1.303,0.256-2.609,0.657-3.924,1.205V105.232z M123.951,125.521
			c-1.193,1.103-2.831,1.65-4.421,1.602c-4.207-0.17-7.55-3.482-7.912-7.574v-5.475c3.057-1.687,6.019-2.289,9.1-2.101
			c-0.767,0.401-1.352,1.169-1.388,2.082c-0.073,1.376,0.992,2.539,2.387,2.601c1.169,0.049,2.253,0.56,3.069,1.431
			c0.791,0.864,1.193,1.985,1.162,3.166C125.882,122.897,125.163,124.414,123.951,125.521z M143.833,148.472
			c-3.069,1.267-5.651,3.026-8.306,5.736c-1.304-5.797-2.339-14.462,0.621-19.461c1.29-2.181,3.245-3.478,5.991-3.958
			c0.493,0,1.474,0.279,2.01,0.864c0.061,0.073,0.115,0.171,0.158,0.274c-2.473,2.125-4.841,5.145-6.99,9.475
			c-0.627,1.23-0.128,2.734,1.126,3.343c0.359,0.177,0.725,0.262,1.108,0.262c0.913,0,1.797-0.505,2.234-1.382
			c1.87-3.77,3.812-6.394,5.87-8.123c0.086-0.024,0.646-0.152,1.432-0.152c2.569,0,3.915,1.291,4.348,4.195
			C153.978,142.821,152.759,144.794,143.833,148.472z M160.255,94.065c0.226,0,0.457,0.018,0.688,0.055
			c2.204,0.401,3.702,2.502,3.294,4.704c-0.384,2.174-2.479,3.641-4.67,3.292c-1.084-0.189-2.01-0.792-2.649-1.69
			c-0.621-0.892-0.853-1.946-0.646-3.011C156.62,95.505,158.331,94.065,160.255,94.065z"/>
	</g>
</g>
</svg>