<?xml version="1.0" encoding="utf-8"?>
<svg viewBox="262.699951171875 402.79998779296875 86 9.50006103515625" width="86" height="9.50006103515625" xmlns="http://www.w3.org/2000/svg"><path class="st3" d="M278.2,407.5H334c0.1,0,0.3,0.2,0.7,0.7v0.1h-57.6v-0.1C277.5,407.7,277.9,407.5,278.2,407.5L278.2,407.5z&#10;&#9;&#9; M266.8,402.8L266.8,402.8c-1.2,1.4-1.8,2.6-1.8,3.7c0,1.1,0.6,1.9,1.8,2.2c0.2,0,0.4,0.1,0.6,0.1h0.2c1.1,0,1.7-0.4,1.9-1.3v-0.1&#10;&#9;&#9;c0-0.4-0.1-0.7-0.2-0.7c-0.4,0-0.8,0.2-1.1,0.5c-0.1,0-0.2-0.3-0.3-0.8c0-0.8,0.5-1.3,1.6-1.4h0.3c0.9,0,1.6,0.7,2,2.2&#10;&#9;&#9;c0,0.2,0.1,0.4,0.1,0.6c0,0.9-0.4,1.7-1.1,2.4h0.1c1-0.5,1.5-1.5,1.5-3.2c0-0.8-0.1-1.3-0.1-1.5c0.3-0.2,0.6-0.4,0.9-0.4h0.2&#10;&#9;&#9;c0.4,0,0.7,0.3,0.8,1v0.4c0,0.2-0.1,0.5-0.3,1v0.1h0.1c0.9-1.9,2.1-2.8,3.6-2.8c0.8,0,1.8,0.3,3.1,1h50.5c1.1-0.7,2.1-1,3.1-1&#10;&#9;&#9;c1.4,0,2.6,1,3.5,2.9h0.1v-0.1c-0.2-0.5-0.4-0.9-0.4-1.3c0.1-0.7,0.5-1.1,0.9-1.1h0.2c0.1,0,0.4,0.1,0.8,0.4c0,0.5-0.1,1-0.1,1.2&#10;&#9;&#9;v0.5c0,1.6,0.5,2.5,1.5,2.9c-0.6-0.7-0.9-1.5-0.9-2.3v-0.2c0.2-1.7,0.9-2.6,2.2-2.6h0.3c0.9,0.2,1.4,0.7,1.4,1.3v0.1&#10;&#9;&#9;c0,0.1-0.1,0.4-0.2,0.7h-0.1c-0.3-0.3-0.7-0.5-1.1-0.5c-0.1,0.1-0.1,0.4-0.2,0.7c0.2,0.9,0.8,1.4,1.9,1.4h0.2&#10;&#9;&#9;c1.3,0,2.1-0.6,2.4-1.8v-0.6c0-1-0.6-2.2-1.8-3.5v-0.1c1.1,0,2.2,0.8,3.4,2.3c0.3,0.5,0.4,1.1,0.4,1.6v0.4c0,1.6-0.9,3-2.8,4.4&#10;&#9;&#9;c-0.9,0.5-1.8,0.8-2.7,0.8h-0.6c-2.2,0-4.3-1.1-6.2-3.3c-1.8-1.8-4.2-2.7-7.1-2.7h-47.1c-3.4,0-6.2,1.3-8.3,3.8&#10;&#9;&#9;c-1.5,1.5-3.2,2.2-5.1,2.2h-0.5c-2.3,0-4.1-1.3-5.3-3.8c-0.2-0.6-0.3-1.2-0.3-1.6c0-1.7,1-3,3.1-3.9&#10;&#9;&#9;C266.3,402.8,266.5,402.8,266.8,402.8L266.8,402.8z" style="fill: rgb(204, 204, 204); opacity: 1;" transform="matrix(1, 0, 0, 1, 0, 0)"/></svg>