<?xml version="1.0" encoding="utf-8"?>
<svg viewBox="113.59999084472656 46.30000686645508 216.00001525878906 36.19999313354492" width="216.00001525878906" height="36.19999313354492" xmlns="http://www.w3.org/2000/svg"><g transform="matrix(1, 0, 0, 1, 5.684341886080802e-14, 0)">
		<path class="st1" d="M129.5,67.5c1.2-0.2,7.2-0.6,7.2-0.6s-6.2-0.2-7.1-0.2c-2.4-0.1-4.4-0.1-6.1,0c-3.3,0.2-5.4,0.6-6.9,1.3&#10;&#9;&#9;&#9;c-1.1,0.6-2.1,1.5-2.5,2.4c-0.5,0.9-0.5,1.8-0.1,2.4c0.4,0.6,1,0.8,1.8,0.8c0.7,0,1.6-0.3,2.4-0.8c0.7-0.4,1.4-1,2.2-1.6&#10;&#9;&#9;&#9;c0.8-0.6,1.9-1.4,3.4-2C125.1,68.5,127,67.9,129.5,67.5z" style="fill: rgb(204, 204, 204); opacity: 1;"/>
		<path class="st1" d="M119.2,58.4c0.1,0.2,0.2,0.4,0.4,0.5c0.1,0.1,0.2,0.3,0.4,0.5c0.5,0.6,1.1,1.2,1.9,1.8c1.4,1.2,3.3,2.2,5.5,3&#10;&#9;&#9;&#9;c4.2,1.5,7.6,2,12.7,1.8h21.7h119.8h21.7c5.1,0.3,8.4-0.3,12.7-1.8c2.2-0.8,4.1-1.8,5.5-3c0.7-0.6,1.3-1.2,1.9-1.8&#10;&#9;&#9;&#9;c0.1-0.1,0.2-0.3,0.4-0.5c0.1-0.2,0.2-0.3,0.4-0.5c0.2-0.4,0.4-0.7,0.6-1.1c1.3-2.9,0.6-6.3-1.3-8.5c-0.9-1.1-2.1-1.8-3.2-2.1&#10;&#9;&#9;&#9;c-1.1-0.3-2.2-0.3-3.1-0.3c0.9,0.3,1.7,0.8,2.2,1.6c0.5,0.7,0.6,1.5,0.6,2.3c-0.2,4.1-2.4,7.6-5.7,10.6c-2.1,1.8-4.7,3.5-7.9,4.4&#10;&#9;&#9;&#9;h-24.6H161.7h-24.6c-3.2-0.9-5.8-2.6-7.9-4.4c-3.4-3-5.5-6.5-5.7-10.6c0-0.8,0.1-1.6,0.6-2.3c0.5-0.7,1.3-1.3,2.2-1.6&#10;&#9;&#9;&#9;c-1,0-2-0.1-3.1,0.3c-1.1,0.3-2.3,1-3.2,2.1c-1.9,2.1-2.6,5.6-1.3,8.5C118.8,57.7,118.9,58,119.2,58.4z" style="fill: rgb(204, 204, 204); opacity: 1;"/>
		<path class="st1" d="M329.1,70.5c-0.5-0.9-1.4-1.8-2.5-2.4c-1.6-0.7-3.6-1.1-6.9-1.3c-1.7-0.1-3.6-0.1-6.1,0&#10;&#9;&#9;&#9;c-0.9,0-7.1,0.2-7.1,0.2s6,0.4,7.2,0.6c2.5,0.4,4.3,1,5.8,1.7c1.5,0.7,2.5,1.4,3.4,2c0.8,0.6,1.5,1.2,2.2,1.6&#10;&#9;&#9;&#9;c0.8,0.5,1.6,0.7,2.4,0.8c0.7,0,1.4-0.2,1.8-0.8C329.6,72.3,329.5,71.4,329.1,70.5z" style="fill: rgb(204, 204, 204); opacity: 1;"/>
		<path class="st1" d="M318.3,72.4c-1.2-1.3-3-2.5-5.5-3.3c-1.7-0.5-3.7-0.8-5.9-0.7v0h-25.4H161.7h-25.4v0c-2.2,0-4.2,0.2-5.9,0.7&#10;&#9;&#9;&#9;c-2.4,0.7-4.3,2-5.5,3.3c-1.2,1.3-1.9,2.6-2.3,3.7c-0.2,0.5-0.3,1.2-0.3,1.8c0,0.6,0.1,1.1,0.3,1.6c0.3,0.9,1,1.6,1.8,2.1&#10;&#9;&#9;&#9;c0.8,0.5,1.6,0.7,2.4,0.7c1.6,0.2,3.1-0.1,4.4-0.2c-1.3-0.5-2.3-1.8-3-2.7c-0.8-1.2-0.9-3.2-0.3-4.7c0.4-0.9,1.2-2.7,3.1-3.8&#10;&#9;&#9;&#9;c1.9-1.2,4.8-1.9,8.4-1.7c0.1,0,0.1,0,0.1-0.1h22.1h119.8h22.1c0,0,0.1,0.1,0.1,0.1c3.6-0.2,6.5,0.5,8.4,1.7&#10;&#9;&#9;&#9;c1.9,1.2,2.7,2.9,3.1,3.8c0.6,1.5,0.5,3.5-0.3,4.7c-0.6,1-1.7,2.2-3,2.7c1.3,0.1,2.8,0.4,4.4,0.2c0.8-0.1,1.6-0.3,2.4-0.7&#10;&#9;&#9;&#9;c0.8-0.4,1.4-1.2,1.8-2.1c0.2-0.5,0.3-1,0.3-1.6c0-0.6-0.1-1.3-0.3-1.8C320.1,75,319.5,73.7,318.3,72.4z" style="fill: rgb(204, 204, 204); opacity: 1;"/>
	</g></svg>